<svg width="20" height="21" viewBox="0 0 20 21" fill="none" xmlns="http://www.w3.org/2000/svg">
<path fill-rule="evenodd" clip-rule="evenodd" d="M18.9966 5.19181C18.9966 7.22041 17.3514 8.86561 15.3228 8.86561C13.2942 8.86561 11.6499 7.22041 11.6499 5.19181C11.6499 3.16321 13.2942 1.51801 15.3228 1.51801C17.3514 1.51801 18.9966 3.16321 18.9966 5.19181Z" stroke="#130F26" stroke-width="1.5" stroke-linecap="round" stroke-linejoin="round"/>
<path fill-rule="evenodd" clip-rule="evenodd" d="M8.34292 5.19181C8.34292 7.22041 6.69862 8.86561 4.66912 8.86561C2.64142 8.86561 0.996216 7.22041 0.996216 5.19181C0.996216 3.16321 2.64142 1.51801 4.66912 1.51801C6.69862 1.51801 8.34292 3.16321 8.34292 5.19181Z" stroke="#130F26" stroke-width="1.5" stroke-linecap="round" stroke-linejoin="round"/>
<path fill-rule="evenodd" clip-rule="evenodd" d="M18.9966 15.7799C18.9966 17.8085 17.3514 19.4528 15.3228 19.4528C13.2942 19.4528 11.6499 17.8085 11.6499 15.7799C11.6499 13.7513 13.2942 12.1061 15.3228 12.1061C17.3514 12.1061 18.9966 13.7513 18.9966 15.7799Z" stroke="#130F26" stroke-width="1.5" stroke-linecap="round" stroke-linejoin="round"/>
<path fill-rule="evenodd" clip-rule="evenodd" d="M8.34292 15.7799C8.34292 17.8085 6.69862 19.4528 4.66912 19.4528C2.64142 19.4528 0.996216 17.8085 0.996216 15.7799C0.996216 13.7513 2.64142 12.1061 4.66912 12.1061C6.69862 12.1061 8.34292 13.7513 8.34292 15.7799Z" stroke="#130F26" stroke-width="1.5" stroke-linecap="round" stroke-linejoin="round"/>
</svg>
